<svg width="231" height="278" viewBox="0 0 231 278" fill="none" xmlns="http://www.w3.org/2000/svg">
<path opacity="0.64" d="M115.333 278C179.03 278 230.667 267.611 230.667 254.796C230.667 241.981 179.03 231.592 115.333 231.592C51.6366 231.592 0 241.981 0 254.796C0 267.611 51.6366 278 115.333 278Z" fill="#68CCE9"/>
<path d="M60.0459 251.068C61.6648 245.818 66.6195 243.022 74.6649 240.667C79.7669 239.196 86.2424 238.509 96.3973 236.449C101.352 235.467 104.835 233.505 104.835 233.505V239.147C104.835 239.147 71.2309 245.769 65.9818 254.453C63.4308 258.72 64.2157 269.17 76.2348 270.249C72.5555 270.789 66.5214 269.856 63.2837 266.57C59.261 262.498 58.1817 257.053 60.0459 251.068Z" fill="#282323" stroke="black" stroke-width="4" stroke-miterlimit="10" stroke-linecap="round" stroke-linejoin="round"/>
<path d="M104.835 239.147C104.835 239.147 84.7216 242.875 73.9781 247.486C64.5591 251.558 64.8534 255.777 64.6082 260.094C64.461 262.596 66.2271 268.777 73.3894 269.857C81.9254 271.132 91.9821 269.758 104.835 261.566C104.835 241.501 104.835 239.147 104.835 239.147Z" fill="#442C2A"/>
<path opacity="0.37" d="M64.6082 260.094C64.8044 256.611 64.6572 253.177 69.5629 249.841C69.3667 251.068 69.3176 252.245 69.2686 253.471C69.1214 255.973 75.1555 252.736 82.3178 253.766C89.7745 254.894 94.1896 263.43 104.835 257.69C104.835 258.917 104.835 260.192 104.835 261.517C91.9821 269.709 81.9254 271.034 73.3894 269.807C66.2271 268.777 64.461 262.547 64.6082 260.094Z" fill="#442C2A"/>
<path d="M104.835 239.147C104.835 239.147 84.7216 242.875 73.9781 247.486C64.5591 251.558 64.8534 255.777 64.6082 260.094C64.461 262.596 66.2271 268.777 73.3894 269.857C81.9254 271.132 91.9821 269.758 104.835 261.566C104.835 241.501 104.835 239.147 104.835 239.147Z" stroke="black" stroke-width="4" stroke-miterlimit="10" stroke-linecap="round" stroke-linejoin="round"/>
<path d="M86.1935 250.675C84.5746 251.558 84.9671 260.143 88.8916 261.321" stroke="black" stroke-width="4" stroke-miterlimit="10" stroke-linecap="round" stroke-linejoin="round"/>
<path d="M92.3255 250.037C90.6576 252.392 91.835 257.936 94.8275 259.309" stroke="black" stroke-width="4" stroke-miterlimit="10" stroke-linecap="round" stroke-linejoin="round"/>
<path d="M97.9671 248.075C96.2992 250.43 97.4766 255.973 100.469 257.347" stroke="black" stroke-width="4" stroke-miterlimit="10" stroke-linecap="round" stroke-linejoin="round"/>
<path d="M155.855 222.663C145.258 230.022 130.198 234.241 114.45 234.241C98.752 234.241 83.6424 230.022 73.0461 222.663C68.1894 219.278 60.0459 212.214 60.0459 202.795C60.0459 193.376 68.1894 186.312 73.0461 182.927C83.6424 175.569 98.703 171.35 114.45 171.35C130.149 171.35 145.258 175.569 155.855 182.927C160.711 186.312 168.855 193.376 168.855 202.795C168.855 212.214 160.711 219.278 155.855 222.663Z" fill="#151E28"/>
<path d="M204.372 210.644C204.176 211.626 203.98 212.558 203.685 213.539C196.032 241.452 159.141 262.645 114.745 262.645C70.2499 262.645 33.2608 241.354 25.755 213.343C25.5588 212.558 25.3626 211.773 25.2154 210.988C25.0192 209.516 25.0682 208.044 25.3626 206.573C27.1777 198.331 37.1853 193.573 47.7326 195.927C54.6497 197.448 60.046 201.716 62.4498 206.769C62.6951 207.848 63.0875 208.927 63.5291 209.958C66.08 215.845 71.182 220.26 74.616 222.713C84.8689 230.071 99.537 234.29 114.745 234.29C130.002 234.29 144.621 230.071 154.874 222.713C158.357 220.211 163.508 215.746 166.009 209.86C166.402 208.927 166.745 207.897 166.991 206.916C169.345 201.814 174.791 197.546 181.757 195.976C192.304 193.622 202.312 198.429 204.127 206.622C204.47 207.897 204.519 209.271 204.372 210.644Z" fill="#2A3749"/>
<path opacity="0.67" d="M204.127 206.524C204.078 206.278 204.029 206.082 203.931 205.837C203.783 206.622 203.587 207.456 203.342 208.241C195.787 236.154 158.847 257.347 114.499 257.347C70.0045 257.347 33.0153 236.056 25.5096 208.044C25.4115 207.75 25.3624 207.456 25.2643 207.112C25.0681 208.388 25.019 209.663 25.2152 210.89C25.3624 211.675 25.5587 212.46 25.7549 213.245C33.2606 241.256 70.2497 262.547 114.745 262.547C159.141 262.547 196.032 241.354 203.685 213.441C203.931 212.509 204.176 211.528 204.372 210.546C204.519 209.271 204.47 207.897 204.127 206.524Z" fill="#151E28"/>
<path d="M204.372 210.644C204.176 211.626 203.98 212.558 203.685 213.539C196.032 241.452 159.141 262.645 114.745 262.645C70.2499 262.645 33.2608 241.354 25.755 213.343C25.5588 212.558 25.3626 211.773 25.2154 210.988C25.0192 209.516 25.0682 208.044 25.3626 206.573C27.1777 198.331 37.1853 193.573 47.7326 195.927C54.6497 197.448 60.046 201.716 62.4498 206.769C62.6951 207.848 63.0875 208.927 63.5291 209.958C66.08 215.845 71.182 220.26 74.616 222.713C84.8689 230.071 99.537 234.29 114.745 234.29C130.002 234.29 144.621 230.071 154.874 222.713C158.357 220.211 163.508 215.746 166.009 209.86C166.402 208.927 166.745 207.897 166.991 206.916C169.345 201.814 174.791 197.546 181.757 195.976C192.304 193.622 202.312 198.429 204.127 206.622C204.47 207.897 204.519 209.271 204.372 210.644Z" stroke="black" stroke-width="4" stroke-miterlimit="10" stroke-linecap="round" stroke-linejoin="round"/>
<path d="M115.333 219.279C139.745 219.279 159.534 212.558 159.534 204.267C159.534 195.976 139.745 189.256 115.333 189.256C90.922 189.256 71.1328 195.976 71.1328 204.267C71.1328 212.558 90.922 219.279 115.333 219.279Z" fill="#9B2121"/>
<path d="M115.333 219.279C139.745 219.279 159.534 212.558 159.534 204.267C159.534 195.976 139.745 189.256 115.333 189.256C90.922 189.256 71.1328 195.976 71.1328 204.267C71.1328 212.558 90.922 219.279 115.333 219.279Z" stroke="black" stroke-width="4" stroke-miterlimit="10" stroke-linecap="round" stroke-linejoin="round"/>
<path d="M165.666 171.497H63.8233C56.0232 171.497 49.9891 164.678 50.9703 156.927L55.4835 120.87C56.759 110.568 65.4912 102.866 75.8913 102.866H153.696C164.047 102.866 172.779 110.568 174.104 120.87L178.617 156.927C179.5 164.678 173.466 171.497 165.666 171.497Z" fill="#F1534D"/>
<path d="M165.666 171.497H63.8233C56.0232 171.497 49.9891 164.678 50.9703 156.927L55.4835 120.87C56.759 110.568 65.4912 102.866 75.8913 102.866H153.696C164.047 102.866 172.779 110.568 174.104 120.87L178.617 156.927C179.5 164.678 173.466 171.497 165.666 171.497Z" stroke="black" stroke-width="4" stroke-miterlimit="10" stroke-linecap="round" stroke-linejoin="round"/>
<path d="M74.8613 133.33L73.8801 145.644" stroke="black" stroke-width="4" stroke-miterlimit="10" stroke-linecap="round" stroke-linejoin="round"/>
<path d="M155.364 133.33L156.345 145.644" stroke="black" stroke-width="4" stroke-miterlimit="10" stroke-linecap="round" stroke-linejoin="round"/>
<path d="M165.666 171.497H63.8233C56.0232 171.497 49.9891 164.678 50.9703 156.927L55.4835 120.87C56.759 110.568 65.4912 102.866 75.8913 102.866H153.696C164.047 102.866 172.779 110.568 174.104 120.87L178.617 156.927C179.5 164.678 173.466 171.497 165.666 171.497Z" fill="#F1534D"/>
<g opacity="0.24">
<path opacity="0.24" d="M55.4346 124.696C56.7101 114.394 65.4422 106.692 75.8424 106.692H153.647C163.998 106.692 172.73 114.394 174.055 124.696L178.519 160.459C178.666 159.331 178.715 158.153 178.568 156.927L174.055 120.87C172.779 110.568 164.047 102.866 153.647 102.866H75.8424C65.4913 102.866 56.7591 110.568 55.4346 120.87L50.9213 156.927C50.7741 158.104 50.7741 159.282 50.9704 160.459L55.4346 124.696Z" fill="#9B2121"/>
<path opacity="0.24" d="M80.3555 106.692C80.3555 106.692 86.3896 107.772 86.8802 111.108C87.2726 113.806 87.2236 115.572 88.2538 116.651C89.284 117.73 91.6878 119.938 96.5444 119.938C93.8463 117.24 93.7972 107.772 93.0614 107.772C92.3745 107.772 90.6085 103.062 90.6085 103.062L88.2538 101.983C88.3028 101.983 79.6197 103.062 80.3555 106.692Z" fill="#9B2121"/>
<path opacity="0.24" d="M144.817 106.692C144.817 106.692 138.783 107.772 138.292 111.108C137.899 113.806 137.949 115.572 136.918 116.651C135.888 117.681 133.484 119.938 128.628 119.938C131.326 117.24 131.375 107.772 132.111 107.772C132.798 107.772 134.564 103.062 134.564 103.062L136.918 101.983C136.869 101.983 145.552 103.062 144.817 106.692Z" fill="#9B2121"/>
</g>
<path d="M165.666 171.497H63.8233C56.0232 171.497 49.9891 164.678 50.9703 156.927L55.4835 120.87C56.759 110.568 65.4912 102.866 75.8913 102.866H153.696C164.047 102.866 172.779 110.568 174.104 120.87L178.617 156.927C179.5 164.678 173.466 171.497 165.666 171.497Z" stroke="black" stroke-width="4" stroke-miterlimit="10" stroke-linecap="round" stroke-linejoin="round"/>
<path d="M74.8613 133.33L73.8801 145.644" stroke="black" stroke-width="4" stroke-miterlimit="10" stroke-linecap="round" stroke-linejoin="round"/>
<path d="M155.364 133.33L156.345 145.644" stroke="black" stroke-width="4" stroke-miterlimit="10" stroke-linecap="round" stroke-linejoin="round"/>
<path d="M101.646 82.36L85.5066 81.526L77.9518 82.36C77.9518 82.36 72.8989 86.1374 72.8989 87.1676C72.8989 88.1978 73.3895 96.5865 73.3895 96.5865C73.3895 96.5865 85.3104 98.2054 86.5859 99.4319C87.8614 100.658 95.4162 107.723 95.4162 107.723L102.726 104.877L106.552 94.6733L101.646 82.36Z" fill="#9B2121"/>
<path d="M98.8011 76.1296H80.1594C72.6536 76.1296 66.5215 82.2127 66.5215 89.7675C66.5215 97.2733 72.6046 103.405 80.1594 103.405H82.6122C86.5859 103.405 89.7746 106.594 89.7746 110.568V111.304C89.7746 116.062 93.6501 119.938 98.4087 119.938V111.107C98.5068 111.107 98.6049 111.206 98.6049 111.304V110.568C98.6049 101.737 91.4425 94.5751 82.6122 94.5751H80.1594C77.5103 94.5751 75.3518 92.4166 75.3518 89.7675C75.3518 87.1184 77.5103 84.9599 80.1594 84.9599H98.8011V76.1296Z" fill="#F1534D"/>
<path d="M97.6728 105.024C95.4162 98.9413 89.5293 94.5262 82.6613 94.5262H80.2085C77.5594 94.5262 75.4008 92.3677 75.4008 89.7186C75.4008 87.0695 77.5594 84.911 80.2085 84.911H98.8502V76.0807H80.2085C72.7027 76.0807 66.5706 82.1638 66.5706 89.7186C66.5706 97.2243 72.6537 103.356 80.2085 103.356H82.6613C86.635 103.356 89.8237 106.545 89.8237 110.519V111.255C89.8237 116.013 93.6992 119.889 98.4577 119.889" stroke="black" stroke-width="4" stroke-miterlimit="10" stroke-linecap="round" stroke-linejoin="round"/>
<path d="M122.986 82.36L139.126 81.526L146.681 82.36C146.681 82.36 151.734 86.1374 151.734 87.1676C151.734 88.1978 151.243 96.5865 151.243 96.5865C151.243 96.5865 139.322 98.2054 138.047 99.4319C136.771 100.707 129.217 107.723 129.217 107.723L121.907 104.877L118.081 94.6733L122.986 82.36Z" fill="#9B2121"/>
<path d="M125.832 76.1296H144.474C151.979 76.1296 158.111 82.2127 158.111 89.7675C158.111 97.2733 152.028 103.405 144.474 103.405H142.021C138.047 103.405 134.858 106.594 134.858 110.568V111.304C134.858 116.062 130.983 119.938 126.224 119.938V111.107C126.126 111.107 126.028 111.206 126.028 111.304V110.568C126.028 101.737 133.19 94.5751 142.021 94.5751H144.474C147.123 94.5751 149.281 92.4166 149.281 89.7675C149.281 87.1184 147.123 84.9599 144.474 84.9599H125.832V76.1296Z" fill="#F1534D"/>
<path d="M127.009 105.024C129.266 98.9413 135.153 94.5262 142.021 94.5262H144.474C147.123 94.5262 149.281 92.3677 149.281 89.7186C149.281 87.0695 147.123 84.911 144.474 84.911H125.832V76.0807H144.474C151.979 76.0807 158.111 82.1638 158.111 89.7186C158.111 97.2243 152.028 103.356 144.474 103.356H142.021C138.047 103.356 134.858 106.545 134.858 110.519V111.255C134.858 116.013 130.983 119.889 126.224 119.889" stroke="black" stroke-width="4" stroke-miterlimit="10" stroke-linecap="round" stroke-linejoin="round"/>
<path d="M113.224 112.972C123.79 112.972 132.356 104.406 132.356 93.8393C132.356 83.2729 123.79 74.707 113.224 74.707C102.657 74.707 94.0916 83.2729 94.0916 93.8393C94.0916 104.406 102.657 112.972 113.224 112.972Z" fill="#F46262"/>
<path d="M94.9255 88.1977C100.224 91.5827 106.503 93.594 113.224 93.594C119.945 93.594 126.224 91.6317 131.522 88.1977C129.118 80.3486 121.858 74.658 113.224 74.658C104.639 74.707 97.3293 80.3977 94.9255 88.1977Z" fill="#F1534D"/>
<path d="M113.224 112.972C123.79 112.972 132.356 104.406 132.356 93.8393C132.356 83.2729 123.79 74.707 113.224 74.707C102.657 74.707 94.0916 83.2729 94.0916 93.8393C94.0916 104.406 102.657 112.972 113.224 112.972Z" stroke="black" stroke-width="4" stroke-miterlimit="10" stroke-linecap="round" stroke-linejoin="round"/>
<path d="M113.224 104.926C106.994 104.926 101.941 99.8734 101.941 93.6431V85.2053C101.941 83.6355 103.216 82.36 104.786 82.36H121.711C123.281 82.36 124.556 83.6355 124.556 85.2053V93.6431C124.507 99.8734 119.454 104.926 113.224 104.926Z" fill="#FFC897"/>
<path d="M121.711 82.36H104.786C103.216 82.36 101.941 83.7336 101.941 85.4015V92.3186C105.473 93.6431 109.25 94.379 113.224 94.379C117.197 94.379 120.975 93.6431 124.507 92.3186V85.4015C124.507 83.7336 123.231 82.36 121.711 82.36Z" fill="#E5A973"/>
<path d="M113.224 104.926C106.994 104.926 101.941 99.8734 101.941 93.6431V85.2053C101.941 83.6355 103.216 82.36 104.786 82.36H121.711C123.281 82.36 124.556 83.6355 124.556 85.2053V93.6431C124.507 99.8734 119.454 104.926 113.224 104.926Z" stroke="black" stroke-width="4" stroke-miterlimit="10" stroke-linecap="round" stroke-linejoin="round"/>
<path d="M125.439 232.033H114.941V265.539H125.439V232.033Z" fill="#607691"/>
<path d="M125.439 232.033H114.941V265.539H125.439V232.033Z" stroke="black" stroke-width="4" stroke-miterlimit="10" stroke-linecap="round" stroke-linejoin="round"/>
<path d="M63.4799 209.86C63.0384 208.829 62.695 207.799 62.4006 206.671C62.9403 207.75 63.2837 208.78 63.4799 209.86Z" stroke="black" stroke-width="4" stroke-miterlimit="10" stroke-linecap="round" stroke-linejoin="round"/>
<path d="M166.059 209.761C166.255 208.731 166.598 207.75 167.04 206.818C166.794 207.848 166.451 208.829 166.059 209.761Z" stroke="black" stroke-width="4" stroke-miterlimit="10" stroke-linecap="round" stroke-linejoin="round"/>
<path d="M165.911 207.407H63.6272C59.9969 207.407 56.9063 204.709 56.4158 201.078L50.0383 151.138C49.4987 146.821 52.8836 142.946 57.2497 142.946H172.289C176.655 142.946 180.04 146.772 179.5 151.138L173.123 201.078C172.632 204.659 169.542 207.407 165.911 207.407Z" fill="#B5B5B5"/>
<path opacity="0.21" d="M173.074 197.939C172.632 201.569 169.542 204.267 165.862 204.267H63.6272C59.997 204.267 56.9064 201.569 56.4158 197.939L50.1365 148.734C49.9893 149.519 49.9402 150.304 50.0384 151.138L56.4158 201.078C56.8573 204.709 59.9479 207.407 63.6272 207.407H165.911C169.542 207.407 172.632 204.709 173.123 201.078L179.5 151.138C179.598 150.304 179.549 149.519 179.402 148.734L173.074 197.939Z" fill="#7E7E7E"/>
<path opacity="0.21" d="M50.0874 151.58C50.6761 148.244 53.6195 145.595 57.2007 145.595H172.24C175.87 145.595 178.764 148.195 179.353 151.58L179.402 151.089C179.942 146.772 176.557 142.896 172.191 142.896H57.2497C52.8836 142.896 49.4987 146.723 50.0383 151.089L50.0874 151.58Z" fill="#7E7E7E"/>
<path d="M165.911 207.407H63.6272C59.9969 207.407 56.9063 204.709 56.4158 201.078L50.0383 151.138C49.4987 146.821 52.8836 142.946 57.2497 142.946H172.289C176.655 142.946 180.04 146.772 179.5 151.138L173.123 201.078C172.632 204.659 169.542 207.407 165.911 207.407Z" stroke="black" stroke-width="4" stroke-miterlimit="10" stroke-linecap="round" stroke-linejoin="round"/>
<path opacity="0.66" d="M119.601 172.135C117.394 172.135 115.628 170.369 115.628 168.161C115.628 168.014 115.628 167.867 115.677 167.719C115.284 167.67 114.892 167.621 114.499 167.621C110.918 167.621 107.975 170.565 107.975 174.146C107.975 177.727 110.918 180.671 114.499 180.671C118.081 180.671 121.024 177.727 121.024 174.146C121.024 173.41 120.877 172.674 120.681 171.987C120.337 172.036 119.994 172.135 119.601 172.135Z" fill="#B5B5B5"/>
<path d="M170.228 251.068C168.61 245.818 163.655 243.022 155.609 240.667C150.507 239.196 144.032 238.509 133.877 236.449C128.922 235.467 125.439 233.505 125.439 233.505V239.147C125.439 239.147 159.043 245.769 164.292 254.453C166.843 258.72 166.059 269.17 154.04 270.249C157.719 270.789 163.753 269.856 166.991 266.57C171.013 262.498 172.093 257.053 170.228 251.068Z" fill="#282323" stroke="black" stroke-width="4" stroke-miterlimit="10" stroke-linecap="round" stroke-linejoin="round"/>
<path d="M125.439 239.147C125.439 239.147 145.553 242.875 156.296 247.486C165.715 251.558 165.421 255.777 165.666 260.094C165.813 262.596 164.047 268.777 156.885 269.857C148.349 271.132 138.292 269.758 125.439 261.566C125.439 241.501 125.439 239.147 125.439 239.147Z" fill="#442C2A"/>
<path opacity="0.37" d="M165.666 260.094C165.47 256.611 165.617 253.177 160.711 249.841C160.908 251.068 160.957 252.245 161.006 253.471C161.153 255.973 159.387 262.155 152.224 263.234C144.768 264.362 136.085 263.43 125.439 257.69C125.439 258.917 125.439 260.192 125.439 261.517C138.292 269.709 148.349 271.034 156.885 269.807C164.096 268.777 165.813 262.547 165.666 260.094Z" fill="#442C2A"/>
<path d="M125.439 239.147C125.439 239.147 145.553 242.875 156.296 247.486C165.715 251.558 165.421 255.777 165.666 260.094C165.813 262.596 164.047 268.777 156.885 269.857C148.349 271.132 138.292 269.758 125.439 261.566C125.439 241.501 125.439 239.147 125.439 239.147Z" stroke="black" stroke-width="4" stroke-miterlimit="10" stroke-linecap="round" stroke-linejoin="round"/>
<path d="M144.081 250.675C145.7 251.558 145.307 260.143 141.383 261.321" stroke="black" stroke-width="4" stroke-miterlimit="10" stroke-linecap="round" stroke-linejoin="round"/>
<path d="M137.949 250.037C139.617 252.392 138.439 257.936 135.447 259.309" stroke="black" stroke-width="4" stroke-miterlimit="10" stroke-linecap="round" stroke-linejoin="round"/>
<path d="M132.307 248.075C133.975 250.43 132.798 255.973 129.805 257.347" stroke="black" stroke-width="4" stroke-miterlimit="10" stroke-linecap="round" stroke-linejoin="round"/>
<path d="M96.0049 114.934V141.032" stroke="black" stroke-width="6" stroke-miterlimit="10" stroke-linecap="round" stroke-linejoin="round"/>
<path d="M129.118 114.934V133.33" stroke="black" stroke-width="6" stroke-miterlimit="10" stroke-linecap="round" stroke-linejoin="round"/>
<path d="M129.118 138.874C131.367 138.874 133.19 137.051 133.19 134.802C133.19 132.553 131.367 130.73 129.118 130.73C126.87 130.73 125.047 132.553 125.047 134.802C125.047 137.051 126.87 138.874 129.118 138.874Z" fill="black"/>
<path d="M129.118 135.979C130.04 135.979 130.786 135.233 130.786 134.312C130.786 133.39 130.04 132.644 129.118 132.644C128.197 132.644 127.45 133.39 127.45 134.312C127.45 135.233 128.197 135.979 129.118 135.979Z" fill="#7E7E7E"/>
<path d="M113.224 90.6507C96.152 90.6507 82.2688 76.8166 82.2688 59.6956V23.7858H144.179V59.6956C144.179 76.7675 130.345 90.6507 113.224 90.6507Z" fill="#FFC897"/>
<path d="M113.224 86.3827C96.152 86.3827 82.2688 72.5486 82.2688 55.4276V59.6956C82.2688 76.7675 96.1029 90.6507 113.224 90.6507C130.296 90.6507 144.179 76.8165 144.179 59.6956V55.4276C144.179 72.4995 130.345 86.3827 113.224 86.3827Z" fill="#E5A973"/>
<path d="M113.224 90.6507C96.152 90.6507 82.2688 76.8166 82.2688 59.6956V23.7858H144.179V59.6956C144.179 76.7675 130.345 90.6507 113.224 90.6507Z" stroke="black" stroke-width="4" stroke-miterlimit="10" stroke-linecap="round" stroke-linejoin="round"/>
<path d="M144.424 27.3669C144.326 25.699 144.228 23.982 144.179 22.314C123.575 23.2952 102.873 23.148 82.318 21.3329C82.1708 23.2461 82.0727 25.1594 81.9255 27.0726C82.8576 27.9066 83.8388 28.7896 84.7708 29.6235C85.5558 30.016 86.586 30.5556 87.5181 31.0462C91.6389 33.2047 97.3785 35.9519 102.873 37.0312C104.884 37.4236 106.994 37.6199 109.152 37.5708C118.424 37.4727 126.224 33.7934 129.511 32.2726C130.002 32.0274 130.394 31.8311 130.639 31.7821C130.836 31.684 131.032 31.6349 131.326 31.6349C131.915 31.6349 132.602 31.7821 133.436 31.9292C134.515 32.1745 135.79 32.4198 137.213 32.3217C138.832 32.2236 140.304 31.733 141.726 30.8009C142.56 29.6236 143.492 28.4952 144.424 27.3669Z" fill="#E5A973"/>
<path d="M129.511 8.72513C129.511 8.72513 104.737 -7.61091 84.231 10.6384C80.4046 14.0233 78.8838 18.88 78.8838 23.3442V46.9897H82.3178V29.8197C82.3178 28.5442 83.2008 27.5631 84.2801 27.5631C86.0461 27.5631 95.6123 32.665 103.707 34.0877C115.922 36.1971 127.058 30.5556 129.462 29.7216C133.583 28.2499 136.918 33.3518 142.118 27.6121H142.315C143.394 27.6121 144.277 28.6423 144.277 29.8688V47.0388H147.711V23.4913C147.613 17.7026 140.941 3.18166 129.511 8.72513Z" fill="#231A17"/>
<g opacity="0.34">
<path opacity="0.34" d="M82.269 43.752H78.835V46.9897H82.269V43.752Z" fill="#231A17"/>
<path opacity="0.34" d="M147.613 43.752H144.179V46.9897H147.613V43.752Z" fill="#231A17"/>
</g>
<path d="M129.511 8.72513C129.511 8.72513 104.737 -7.61091 84.231 10.6384C80.4046 14.0233 78.8838 18.88 78.8838 23.3442V46.9897H82.3178V29.8197C82.3178 28.5442 83.2008 27.5631 84.2801 27.5631C86.0461 27.5631 95.6123 32.665 103.707 34.0877C115.922 36.1971 127.058 30.5556 129.462 29.7216C133.583 28.2499 136.918 33.3518 142.118 27.6121H142.315C143.394 27.6121 144.277 28.6423 144.277 29.8688V47.0388H147.711V23.4913C147.613 17.7026 140.941 3.18166 129.511 8.72513Z" stroke="black" stroke-width="4" stroke-miterlimit="10" stroke-linecap="round" stroke-linejoin="round"/>
<path d="M108.564 24.6688C108.564 24.6688 81.9746 26.3858 76.333 12.2573" stroke="black" stroke-width="4" stroke-miterlimit="10" stroke-linecap="round" stroke-linejoin="round"/>
<path d="M112.341 21.2837C112.341 21.2837 86.7331 19.6648 80.0613 5.53638" stroke="black" stroke-width="4" stroke-miterlimit="10" stroke-linecap="round" stroke-linejoin="round"/>
<path d="M144.179 43.1633V59.2541C147.613 59.2541 150.36 55.6729 150.36 51.2087C150.36 46.7445 147.613 43.1633 144.179 43.1633Z" fill="#FFC897"/>
<path d="M144.179 44.0463V58.3219C146.19 56.9973 147.564 54.2992 147.564 51.1596C147.564 48.069 146.19 45.3708 144.179 44.0463Z" fill="#E5A973"/>
<path d="M144.179 43.1633V59.2541C147.613 59.2541 150.36 55.6729 150.36 51.2087C150.36 46.7445 147.613 43.1633 144.179 43.1633Z" stroke="black" stroke-width="4" stroke-miterlimit="10" stroke-linecap="round" stroke-linejoin="round"/>
<path d="M82.3181 43.1633V59.2541C78.8841 59.2541 76.1369 55.6729 76.1369 51.2087C76.0878 46.7445 78.8841 43.1633 82.3181 43.1633Z" fill="#FFC897"/>
<path d="M82.3179 44.3407C80.5519 45.7634 79.3254 48.3143 79.3254 51.2087C79.3254 54.1031 80.5028 56.654 82.3179 58.0767V44.3407Z" fill="#E5A973"/>
<path d="M82.3181 43.1633V59.2541C78.8841 59.2541 76.1369 55.6729 76.1369 51.2087C76.0878 46.7445 78.8841 43.1633 82.3181 43.1633Z" stroke="black" stroke-width="4" stroke-miterlimit="10" stroke-linecap="round" stroke-linejoin="round"/>
<path d="M111.949 56.2616L109.888 62.9824C109.888 63.7183 112.292 63.1296 114.745 63.7183" stroke="black" stroke-width="4" stroke-miterlimit="10" stroke-linecap="round" stroke-linejoin="round"/>
<path d="M123.526 68.8202C124.262 73.9221 117.688 78.4354 112.537 77.5033" stroke="black" stroke-width="3" stroke-miterlimit="10" stroke-linecap="round" stroke-linejoin="round"/>
<path d="M102.088 50.5709C103.226 50.5709 104.148 49.5824 104.148 48.3633C104.148 47.1443 103.226 46.1558 102.088 46.1558C100.95 46.1558 100.028 47.1443 100.028 48.3633C100.028 49.5824 100.95 50.5709 102.088 50.5709Z" stroke="black" stroke-width="2" stroke-miterlimit="10" stroke-linecap="round" stroke-linejoin="round"/>
<path d="M102.088 50.5709C103.226 50.5709 104.148 49.5824 104.148 48.3633C104.148 47.1443 103.226 46.1558 102.088 46.1558C100.95 46.1558 100.028 47.1443 100.028 48.3633C100.028 49.5824 100.95 50.5709 102.088 50.5709Z" fill="black"/>
<path d="M94.9746 43.703C96.0048 42.4766 98.4086 41.6426 101.254 41.6426C103.511 41.6426 105.473 42.1822 106.699 43.0162" stroke="black" stroke-width="3" stroke-miterlimit="10" stroke-linecap="round" stroke-linejoin="round"/>
<path d="M124.654 50.5709C125.792 50.5709 126.715 49.5824 126.715 48.3633C126.715 47.1443 125.792 46.1558 124.654 46.1558C123.516 46.1558 122.594 47.1443 122.594 48.3633C122.594 49.5824 123.516 50.5709 124.654 50.5709Z" stroke="black" stroke-width="2" stroke-miterlimit="10" stroke-linecap="round" stroke-linejoin="round"/>
<path d="M124.654 50.5709C125.792 50.5709 126.715 49.5824 126.715 48.3633C126.715 47.1443 125.792 46.1558 124.654 46.1558C123.516 46.1558 122.594 47.1443 122.594 48.3633C122.594 49.5824 123.516 50.5709 124.654 50.5709Z" fill="black"/>
<path d="M131.768 43.703C130.737 42.4766 128.334 41.6426 125.488 41.6426C123.232 41.6426 121.269 42.1822 120.043 43.0162" stroke="black" stroke-width="3" stroke-miterlimit="10" stroke-linecap="round" stroke-linejoin="round"/>
</svg>
