<svg width="79" height="97" viewBox="0 0 79 97" fill="none" xmlns="http://www.w3.org/2000/svg">
<path d="M0.261269 2.67188C0.27154 1.18613 1.49919 -0.0100815 3.0033 6.40621e-05L41.1314 0.257246C62.1889 0.399284 79.1429 17.3765 78.9991 38.177L78.9805 40.8672C78.8367 61.6676 61.6496 78.4146 40.5921 78.2725L37.8686 78.2542C16.8111 78.1121 -0.142886 61.1349 0.000907956 40.3344L0.261269 2.67188Z" fill="#13345B"/>
<path d="M21.4681 24.1093C21.4771 22.8103 22.5505 21.7644 23.8656 21.7732L39.3436 21.8776C49.2069 21.9442 57.1481 29.8963 57.0808 39.6392C57.0134 49.3822 48.963 57.2264 39.0997 57.1599C29.2363 57.0934 21.2951 49.1412 21.3624 39.3983L21.4681 24.1093Z" fill="#13345B"/>
<path d="M0.530367 83.6483H6.84071C8.30232 83.6483 9.59871 83.9182 10.7299 84.4581C11.861 84.9979 12.738 85.7637 13.3608 86.7555C13.9835 87.7474 14.2949 88.9086 14.2949 90.2394C14.2949 91.5702 13.9835 92.7315 13.3608 93.7233C12.738 94.7151 11.861 95.4809 10.7299 96.0208C9.59871 96.5606 8.30232 96.8305 6.84071 96.8305H0.530367V83.6483ZM6.68819 93.8551C7.83206 93.8551 8.74716 93.535 9.43348 92.8947C10.1325 92.2544 10.482 91.3693 10.482 90.2394C10.482 89.1095 10.1325 88.2244 9.43348 87.5841C8.74716 86.9439 7.83206 86.6237 6.68819 86.6237H4.30513V93.8551H6.68819Z" fill="#13345B"/>
<path d="M26.671 91.7459C26.671 91.7711 26.652 92.0661 26.6139 92.631H19.1024C19.255 93.1583 19.5473 93.5663 19.9794 93.8551C20.4243 94.1313 20.9771 94.2694 21.638 94.2694C22.1337 94.2694 22.5595 94.2003 22.9153 94.0623C23.2839 93.9242 23.6525 93.6982 24.0211 93.3843L25.9275 95.3428C24.9235 96.4476 23.4555 97 21.5236 97C20.3162 97 19.255 96.774 18.3399 96.3221C17.4248 95.8701 16.713 95.2424 16.2046 94.4389C15.709 93.6354 15.4611 92.7252 15.4611 91.7083C15.4611 90.7039 15.7026 89.8063 16.1856 89.0154C16.6813 88.2119 17.3612 87.5841 18.2255 87.1322C19.0897 86.6802 20.062 86.4542 21.1423 86.4542C22.1718 86.4542 23.106 86.6677 23.9448 87.0945C24.7837 87.5088 25.4446 88.1177 25.9275 88.9212C26.4232 89.7121 26.671 90.6537 26.671 91.7459ZM21.1614 88.9965C20.6022 88.9965 20.1319 89.1535 19.7506 89.4673C19.3821 89.7812 19.1469 90.208 19.0453 90.7479H23.2776C23.1759 90.208 22.9344 89.7812 22.5531 89.4673C22.1845 89.1535 21.7206 88.9965 21.1614 88.9965Z" fill="#13345B"/>
<path d="M39.0408 86.6237L34.7703 96.8305H31.0337L26.7823 86.6237H30.4999L32.9783 92.857L35.5901 86.6237H39.0408Z" fill="#13345B"/>
<path d="M39.9772 82.8574H43.5994V96.8305H39.9772V82.8574Z" fill="#13345B"/>
<path d="M51.139 97C50.0332 97 49.0355 96.774 48.1458 96.3221C47.2562 95.8701 46.5571 95.2424 46.0488 94.4389C45.5531 93.6354 45.3052 92.7252 45.3052 91.7083C45.3052 90.7039 45.5531 89.8 46.0488 88.9965C46.5571 88.193 47.2498 87.5716 48.1268 87.1322C49.0165 86.6802 50.0205 86.4542 51.139 86.4542C52.2574 86.4542 53.2615 86.6802 54.1512 87.1322C55.0408 87.5716 55.7335 88.193 56.2292 88.9965C56.7249 89.7874 56.9727 90.6914 56.9727 91.7083C56.9727 92.7252 56.7249 93.6354 56.2292 94.4389C55.7335 95.2424 55.0408 95.8701 54.1512 96.3221C53.2615 96.774 52.2574 97 51.139 97ZM51.139 94.1564C51.7745 94.1564 52.2956 93.943 52.7023 93.5161C53.109 93.0767 53.3123 92.4741 53.3123 91.7083C53.3123 90.955 53.109 90.365 52.7023 89.9381C52.2956 89.5113 51.7745 89.2978 51.139 89.2978C50.5035 89.2978 49.9824 89.5113 49.5757 89.9381C49.169 90.365 48.9656 90.955 48.9656 91.7083C48.9656 92.4741 49.169 93.0767 49.5757 93.5161C49.9824 93.943 50.5035 94.1564 51.139 94.1564Z" fill="#13345B"/>
<path d="M58.6507 86.6237H62.2729V96.8305H58.6507V86.6237ZM60.4618 85.4938C59.8009 85.4938 59.2671 85.3118 58.8604 84.9477C58.4537 84.5836 58.2503 84.1317 58.2503 83.5918C58.2503 83.052 58.4537 82.6 58.8604 82.2359C59.2671 81.8718 59.8009 81.6898 60.4618 81.6898C61.1227 81.6898 61.6565 81.8656 62.0632 82.2171C62.4699 82.5561 62.6733 82.9955 62.6733 83.5353C62.6733 84.1003 62.4699 84.5711 62.0632 84.9477C61.6565 85.3118 61.1227 85.4938 60.4618 85.4938Z" fill="#13345B"/>
<path d="M75.6081 82.8574V96.8305H72.1574V95.8136C71.4838 96.6045 70.4734 97 69.1262 97C68.1856 97 67.3277 96.7866 66.5525 96.3597C65.7772 95.9203 65.1608 95.2989 64.7032 94.4954C64.2584 93.6919 64.0359 92.7629 64.0359 91.7083C64.0359 90.6537 64.2584 89.731 64.7032 88.94C65.1608 88.1365 65.7772 87.5214 66.5525 87.0945C67.3277 86.6677 68.1856 86.4542 69.1262 86.4542C70.359 86.4542 71.3122 86.8058 71.9858 87.5088V82.8574H75.6081ZM69.8887 94.1564C70.5115 94.1564 71.0263 93.943 71.433 93.5161C71.8397 93.0767 72.043 92.4741 72.043 91.7083C72.043 90.955 71.8397 90.365 71.433 89.9381C71.039 89.5113 70.5242 89.2978 69.8887 89.2978C69.2533 89.2978 68.7322 89.5113 68.3255 89.9381C67.9187 90.365 67.7154 90.955 67.7154 91.7083C67.7154 92.4741 67.9187 93.0767 68.3255 93.5161C68.7322 93.943 69.2533 94.1564 69.8887 94.1564Z" fill="#13345B"/>
</svg>
